<svg height="200" id="svg7031" xmlns="http://www.w3.org/2000/svg" viewBox="0 0 361.07 171"><defs><style>.cls-1,.cls-4,.cls-5{fill:none;}.cls-1{stroke:#fff;}.cls-2,.cls-3{isolation:isolate;}.cls-3{font-size:14px;font-family:TimesNewRomanPSMT, Times New Roman;}.cls-4{stroke:#949698;}.cls-4,.cls-5{stroke-linejoin:round;stroke-width:20px;}.cls-5{stroke:#755d28;}.cls-6{letter-spacing:-0.08em;}</style></defs><title>Artboard 1</title><g id="layer8"><rect id="rect7631" class="cls-1" y="0.49" width="361.07" height="170"/></g><g id="text7590" class="cls-2"><text class="cls-3" transform="translate(12.5 136.44)">1</text></g><g id="text7594" class="cls-2"><text class="cls-3" transform="translate(33.5 116.24)">2</text></g><g id="text7598" class="cls-2"><text class="cls-3" transform="translate(54.5 96.03)">3</text></g><g id="text7602" class="cls-2"><text class="cls-3" transform="translate(75.5 76.32)">4</text></g><g id="text7606" class="cls-2"><text class="cls-3" transform="translate(96.5 56.13)">5</text></g><g id="text7610" class="cls-2"><text class="cls-3" transform="translate(117.5 36.92)">6</text></g><g id="text7614" class="cls-2"><text class="cls-3" transform="translate(138.5 16.23)">7</text></g><g id="text7618" class="cls-2"><text class="cls-3" transform="translate(159.5 15.73)">7</text></g><g id="text7622" class="cls-2"><text class="cls-3" transform="translate(180.7 36.43)">6</text></g><g id="text7626" class="cls-2"><text class="cls-3" transform="translate(201.8 56.13)">5</text></g><g id="path5594"><line class="cls-4" x1="16.3" y1="140.06" x2="16.3" y2="160.06"/></g><g id="path5594-2" data-name="path5594"><line class="cls-4" x1="205.3" y1="60.06" x2="205.3" y2="160.06"/></g><g id="path5594-4"><line class="cls-5" x1="37.3" y1="120.06" x2="37.3" y2="160.06"/></g><g id="path5594-4-2" data-name="path5594-4"><line class="cls-5" x1="58.3" y1="100.06" x2="58.3" y2="160.06"/></g><g id="path5594-4-3" data-name="path5594-4"><line class="cls-5" x1="79.3" y1="80.06" x2="79.3" y2="160.06"/></g><g id="path5594-4-4" data-name="path5594-4"><line class="cls-5" x1="100.3" y1="60.06" x2="100.3" y2="160.06"/></g><g id="path5594-4-5" data-name="path5594-4"><line class="cls-5" x1="121.3" y1="40.06" x2="121.3" y2="160.06"/></g><g id="path5594-4-6" data-name="path5594-4"><line class="cls-5" x1="142.3" y1="20.06" x2="142.3" y2="160.06"/></g><g id="path5594-4-7" data-name="path5594-4"><line class="cls-5" x1="163.3" y1="20.06" x2="163.3" y2="160.06"/></g><g id="path5594-4-8" data-name="path5594-4"><line class="cls-5" x1="184.3" y1="40.06" x2="184.3" y2="160.06"/></g><g id="text6244" class="cls-2"><text class="cls-3" transform="translate(267.49 62.86)">Mud segments</text></g><g id="text6248" class="cls-2"><text class="cls-3" transform="translate(266.49 115.61)"><tspan class="cls-6">W</tspan><tspan x="12.09" y="0">all segments</tspan></text></g><g id="path5594-3" data-name="path5594"><line class="cls-4" x1="253.49" y1="96.95" x2="253.49" y2="125.49"/></g><g id="path5594-4-9" data-name="path5594-4"><line class="cls-5" x1="254.49" y1="45.49" x2="254.49" y2="74.02"/></g><script xmlns=""/></svg>