<svg height="200" id="svg6318" xmlns="http://www.w3.org/2000/svg" viewBox="0 0 300.95 151"><defs><style>.cls-1,.cls-2{isolation:isolate;}.cls-2{font-size:14px;font-family:TimesNewRomanPSMT, Times New Roman;}.cls-3,.cls-4,.cls-5{fill:none;}.cls-4{stroke:#949698;}.cls-4,.cls-5{stroke-linejoin:round;stroke-width:20px;}.cls-5{stroke:#755d28;}.cls-6{letter-spacing:-0.08em;}</style></defs><title>Artboard 1</title><g id="text6966" class="cls-1"><text class="cls-2" transform="translate(15.5 56.34)">4</text></g><g id="text6970" class="cls-1"><text class="cls-2" transform="translate(36.5 56.34)">4</text></g><g id="text6974" class="cls-1"><text class="cls-2" transform="translate(57.5 76.08)">3</text></g><g id="text6978" class="cls-1"><text class="cls-2" transform="translate(78.5 56.34)">4</text></g><g id="text6982" class="cls-1"><text class="cls-2" transform="translate(99.5 35.9)">5</text></g><g id="text6986" class="cls-1"><text class="cls-2" transform="translate(120.7 55.57)">4</text></g><g id="text6990" class="cls-1"><text class="cls-2" transform="translate(141.8 75.84)">3</text></g><rect id="rect6994" class="cls-3" x="0.5" y="0.49" width="300.45" height="150"/><g id="path5594"><line class="cls-4" x1="19.3" y1="60" x2="19.3" y2="140"/></g><g id="path5594-4"><line class="cls-5" x1="40.3" y1="60" x2="40.3" y2="140"/></g><g id="path5594-2" data-name="path5594"><line class="cls-4" x1="61.3" y1="80" x2="61.3" y2="140"/></g><g id="path5594-4-2" data-name="path5594-4"><line class="cls-5" x1="82.3" y1="60" x2="82.3" y2="140"/></g><g id="path5594-4-3" data-name="path5594-4"><line class="cls-5" x1="103.3" y1="40" x2="103.3" y2="140"/></g><g id="path5594-4-4" data-name="path5594-4"><line class="cls-5" x1="124.3" y1="60" x2="124.3" y2="140"/></g><g id="path5594-3" data-name="path5594"><line class="cls-4" x1="145.3" y1="80" x2="145.3" y2="140"/></g><g id="text6244" class="cls-1"><text class="cls-2" transform="translate(206.54 53.46)">Mud segments</text></g><g id="text6248" class="cls-1"><text class="cls-2" transform="translate(205.54 106.21)"><tspan class="cls-6">W</tspan><tspan x="12.09" y="0">all segments</tspan></text></g><g id="path5594-4-5" data-name="path5594"><line class="cls-4" x1="192.54" y1="87.54" x2="192.54" y2="116.08"/></g><g id="path5594-4-6" data-name="path5594-4"><line class="cls-5" x1="193.54" y1="36.08" x2="193.54" y2="64.62"/></g><script xmlns=""/></svg>